# xmcd
#
# Track frame offsets:
#	150
#	22258
#	39534
#	56231
#	67857
#	78136
#	94854
#	106257
#	118577
#	132080
#	146707
#	159428
#	174189
#	191645
#	203330
#	216614
#	227839
#	237281
#	252519
#	266545
#
# Disc length: 3736 seconds
#
# Revision: 1
# Processed by: cddbd v1.5.2PL0 Copyright (c) Steve Scherf et al.
# Submitted via: audiograbber 1.83.01
#
DISCID=1a0e9614
DTITLE=Various Artist - Über den Wolken Vol.4 CD1
DYEAR=2006
DGENRE=Schlager
TTITLE0=Howard Carpendale - Nachts, wenn alles schläft
TTITLE1=Karel Gott - Babicka
TTITLE2=Gitte - So schön kann doch kein Mann
TTITLE3=Rex Gildo - Speedy Gonzales
TTITLE4=Connie Francis - Die Liebe ist ein seltsames Spiel
TTITLE5=Henry Valentino - Im Wagen vor mir
TTITLE6=Peter Kraus - Sugar Baby
TTITLE7=Conny Froboess - Zwei kleine Italiener
TTITLE8=Old Merry Tale Jazzband - Am Sonntag will mein Süsser mit mir segeln ge
TTITLE8=h'n
TTITLE9=Andy Borg - Arrivederci Claire
TTITLE10=Bata Illic - Ich möchte der Knopf an Deiner Bluse sein
TTITLE11=Roy Black - Das Mädchen Carina
TTITLE12=Heino - Die schwarze Barbara
TTITLE13=Catarina Valente - Tipitipitipso
TTITLE14=Ivo Robic - Mit 17 fängt das Leben erst an
TTITLE15=The Blue Diamonds - Ramona
TTITLE16=Ralf Bendix - Babysitter-Boogie
TTITLE17=Melina Mercouri - Ein Schiff wird kommen
TTITLE18=Freddy Quinn - Junge, komm bald wieder
TTITLE19=Hans Albers - Flieger, grüß mir die Sonne
EXTD=
EXTT0=
EXTT1=
EXTT2=
EXTT3=
EXTT4=
EXTT5=
EXTT6=
EXTT7=
EXTT8=
EXTT9=
EXTT10=
EXTT11=
EXTT12=
EXTT13=
EXTT14=
EXTT15=
EXTT16=
EXTT17=
EXTT18=
EXTT19=
PLAYORDER=
